<svg width="321" height="142" viewBox="0 0 321 142" fill="none" xmlns="http://www.w3.org/2000/svg">
    <g opacity="0.32" filter="url(#filter0_d_11524_18163)">
        <circle cx="75" cy="74" r="53" fill="#1781B6"/>
    </g>
    <circle opacity="0.52" cx="74.5" cy="74.5" r="58.5" fill="#1781B6"/>
    <g filter="url(#filter1_d_11524_18163)">
        <circle cx="74.5" cy="74.5" r="47.5" fill="#1781B6"/>
    </g>
    <g clip-path="url(#clip0_11524_18163)">
        <g filter="url(#filter2_d_11524_18163)">
            <path d="M97.5818 69.2027C96.6537 66.4184 93.8694 64.5622 91.0851 64.5622C87.1406 64.5622 84.1243 67.5785 84.1243 71.523C84.1243 74.5393 85.9805 77.0916 88.7648 78.0197V81.9642C88.7648 87.7648 84.1243 92.4053 78.3236 92.4053C72.523 92.4053 67.8825 87.7648 67.8825 81.9642V80.572C74.6112 79.4119 79.4838 73.6112 79.4838 66.8825V52.9609C79.4838 51.5687 78.5557 50.6406 77.1635 50.6406H72.523C71.1308 50.6406 70.2027 51.5687 70.2027 52.9609C70.2027 54.353 71.1308 55.2811 72.523 55.2811H74.8432V66.8825C74.8432 71.987 70.6668 76.1635 65.5622 76.1635C60.4576 76.1635 56.2811 71.987 56.2811 66.8825V55.2811H58.6014C59.9936 55.2811 60.9217 54.353 60.9217 52.9609C60.9217 51.5687 59.9936 50.6406 58.6014 50.6406H53.9609C52.5687 50.6406 51.6406 51.5687 51.6406 52.9609V66.8825C51.6406 73.6112 56.5132 79.4119 63.2419 80.572V81.9642C63.2419 90.3171 69.9707 97.0459 78.3236 97.0459C86.6766 97.0459 93.4053 90.3171 93.4053 81.9642V78.0197C97.1177 76.8596 98.974 72.9151 97.5818 69.2027Z" fill="white"/>
        </g>
    </g>
    <path d="M164.254 65.872V69.94H157.558V91H152.518V69.94H145.822V65.872H164.254ZM166.635 80.956C166.635 78.94 167.031 77.152 167.823 75.592C168.639 74.032 169.731 72.832 171.099 71.992C172.491 71.152 174.039 70.732 175.743 70.732C177.231 70.732 178.527 71.032 179.631 71.632C180.759 72.232 181.659 72.988 182.331 73.9V71.056H187.407V91H182.331V88.084C181.683 89.02 180.783 89.8 179.631 90.424C178.503 91.024 177.195 91.324 175.707 91.324C174.027 91.324 172.491 90.892 171.099 90.028C169.731 89.164 168.639 87.952 167.823 86.392C167.031 84.808 166.635 82.996 166.635 80.956ZM182.331 81.028C182.331 79.804 182.091 78.76 181.611 77.896C181.131 77.008 180.483 76.336 179.667 75.88C178.851 75.4 177.975 75.16 177.039 75.16C176.103 75.16 175.239 75.388 174.447 75.844C173.655 76.3 173.007 76.972 172.503 77.86C172.023 78.724 171.783 79.756 171.783 80.956C171.783 82.156 172.023 83.212 172.503 84.124C173.007 85.012 173.655 85.696 174.447 86.176C175.263 86.656 176.127 86.896 177.039 86.896C177.975 86.896 178.851 86.668 179.667 86.212C180.483 85.732 181.131 85.06 181.611 84.196C182.091 83.308 182.331 82.252 182.331 81.028ZM197.37 73.972C198.018 73.012 198.906 72.232 200.034 71.632C201.186 71.032 202.494 70.732 203.958 70.732C205.662 70.732 207.198 71.152 208.566 71.992C209.958 72.832 211.05 74.032 211.842 75.592C212.658 77.128 213.066 78.916 213.066 80.956C213.066 82.996 212.658 84.808 211.842 86.392C211.05 87.952 209.958 89.164 208.566 90.028C207.198 90.892 205.662 91.324 203.958 91.324C202.47 91.324 201.162 91.036 200.034 90.46C198.93 89.86 198.042 89.092 197.37 88.156V91H192.33V64.36H197.37V73.972ZM207.918 80.956C207.918 79.756 207.666 78.724 207.162 77.86C206.682 76.972 206.034 76.3 205.218 75.844C204.426 75.388 203.562 75.16 202.626 75.16C201.714 75.16 200.85 75.4 200.034 75.88C199.242 76.336 198.594 77.008 198.09 77.896C197.61 78.784 197.37 79.828 197.37 81.028C197.37 82.228 197.61 83.272 198.09 84.16C198.594 85.048 199.242 85.732 200.034 86.212C200.85 86.668 201.714 86.896 202.626 86.896C203.562 86.896 204.426 86.656 205.218 86.176C206.034 85.696 206.682 85.012 207.162 84.124C207.666 83.236 207.918 82.18 207.918 80.956ZM219.284 68.68C218.396 68.68 217.652 68.404 217.052 67.852C216.476 67.276 216.188 66.568 216.188 65.728C216.188 64.888 216.476 64.192 217.052 63.64C217.652 63.064 218.396 62.776 219.284 62.776C220.172 62.776 220.904 63.064 221.48 63.64C222.08 64.192 222.38 64.888 222.38 65.728C222.38 66.568 222.08 67.276 221.48 67.852C220.904 68.404 220.172 68.68 219.284 68.68ZM221.768 71.056V91H216.728V71.056H221.768ZM231.788 73.972C232.436 73.012 233.324 72.232 234.452 71.632C235.604 71.032 236.912 70.732 238.376 70.732C240.08 70.732 241.616 71.152 242.984 71.992C244.376 72.832 245.468 74.032 246.26 75.592C247.076 77.128 247.484 78.916 247.484 80.956C247.484 82.996 247.076 84.808 246.26 86.392C245.468 87.952 244.376 89.164 242.984 90.028C241.616 90.892 240.08 91.324 238.376 91.324C236.888 91.324 235.58 91.036 234.452 90.46C233.348 89.86 232.46 89.092 231.788 88.156V91H226.748V64.36H231.788V73.972ZM242.336 80.956C242.336 79.756 242.084 78.724 241.58 77.86C241.1 76.972 240.452 76.3 239.636 75.844C238.844 75.388 237.98 75.16 237.044 75.16C236.132 75.16 235.268 75.4 234.452 75.88C233.66 76.336 233.012 77.008 232.508 77.896C232.028 78.784 231.788 79.828 231.788 81.028C231.788 82.228 232.028 83.272 232.508 84.16C233.012 85.048 233.66 85.732 234.452 86.212C235.268 86.668 236.132 86.896 237.044 86.896C237.98 86.896 238.844 86.656 239.636 86.176C240.452 85.696 241.1 85.012 241.58 84.124C242.084 83.236 242.336 82.18 242.336 80.956Z" fill="#0596DE"/>
    <path d="M253.702 68.68C252.814 68.68 252.07 68.404 251.47 67.852C250.894 67.276 250.606 66.568 250.606 65.728C250.606 64.888 250.894 64.192 251.47 63.64C252.07 63.064 252.814 62.776 253.702 62.776C254.59 62.776 255.322 63.064 255.898 63.64C256.498 64.192 256.798 64.888 256.798 65.728C256.798 66.568 256.498 67.276 255.898 67.852C255.322 68.404 254.59 68.68 253.702 68.68ZM256.186 71.056V91H251.146V71.056H256.186Z" fill="white"/>
    <path d="M282.658 91H277.618L266.206 73.756V91H261.166V65.836H266.206L277.618 83.116V65.836H282.658V91ZM306.178 80.596C306.178 81.316 306.13 81.964 306.034 82.54H291.454C291.574 83.98 292.078 85.108 292.966 85.924C293.854 86.74 294.946 87.148 296.242 87.148C298.114 87.148 299.446 86.344 300.238 84.736H305.674C305.098 86.656 303.994 88.24 302.362 89.488C300.73 90.712 298.726 91.324 296.35 91.324C294.43 91.324 292.702 90.904 291.166 90.064C289.654 89.2 288.466 87.988 287.602 86.428C286.762 84.868 286.342 83.068 286.342 81.028C286.342 78.964 286.762 77.152 287.602 75.592C288.442 74.032 289.618 72.832 291.13 71.992C292.642 71.152 294.382 70.732 296.35 70.732C298.246 70.732 299.938 71.14 301.426 71.956C302.938 72.772 304.102 73.936 304.918 75.448C305.758 76.936 306.178 78.652 306.178 80.596ZM300.958 79.156C300.934 77.86 300.466 76.828 299.554 76.06C298.642 75.268 297.526 74.872 296.206 74.872C294.958 74.872 293.902 75.256 293.038 76.024C292.198 76.768 291.682 77.812 291.49 79.156H300.958ZM315.725 75.196V84.844C315.725 85.516 315.881 86.008 316.193 86.32C316.529 86.608 317.081 86.752 317.849 86.752H320.189V91H317.021C312.773 91 310.649 88.936 310.649 84.808V75.196H308.273V71.056H310.649V66.124H315.725V71.056H320.189V75.196H315.725Z" fill="#FFAB00"/>
    <defs>
        <filter id="filter0_d_11524_18163" x="12.4762" y="11.4762" width="125.048" height="125.048" filterUnits="userSpaceOnUse" color-interpolation-filters="sRGB">
            <feFlood flood-opacity="0" result="BackgroundImageFix"/>
            <feColorMatrix in="SourceAlpha" type="matrix" values="0 0 0 0 0 0 0 0 0 0 0 0 0 0 0 0 0 0 127 0" result="hardAlpha"/>
            <feOffset/>
            <feGaussianBlur stdDeviation="4.7619"/>
            <feComposite in2="hardAlpha" operator="out"/>
            <feColorMatrix type="matrix" values="0 0 0 0 0 0 0 0 0 0 0 0 0 0 0 0 0 0 0.08 0"/>
            <feBlend mode="normal" in2="BackgroundImageFix" result="effect1_dropShadow_11524_18163"/>
            <feBlend mode="normal" in="SourceGraphic" in2="effect1_dropShadow_11524_18163" result="shape"/>
        </filter>
        <filter id="filter1_d_11524_18163" x="17.4762" y="17.4762" width="114.048" height="114.048" filterUnits="userSpaceOnUse" color-interpolation-filters="sRGB">
            <feFlood flood-opacity="0" result="BackgroundImageFix"/>
            <feColorMatrix in="SourceAlpha" type="matrix" values="0 0 0 0 0 0 0 0 0 0 0 0 0 0 0 0 0 0 127 0" result="hardAlpha"/>
            <feOffset/>
            <feGaussianBlur stdDeviation="4.7619"/>
            <feComposite in2="hardAlpha" operator="out"/>
            <feColorMatrix type="matrix" values="0 0 0 0 0 0 0 0 0 0 0 0 0 0 0 0 0 0 0.08 0"/>
            <feBlend mode="normal" in2="BackgroundImageFix" result="effect1_dropShadow_11524_18163"/>
            <feBlend mode="normal" in="SourceGraphic" in2="effect1_dropShadow_11524_18163" result="shape"/>
        </filter>
        <filter id="filter2_d_11524_18163" x="47.6406" y="46.6406" width="54.4062" height="54.4053" filterUnits="userSpaceOnUse" color-interpolation-filters="sRGB">
            <feFlood flood-opacity="0" result="BackgroundImageFix"/>
            <feColorMatrix in="SourceAlpha" type="matrix" values="0 0 0 0 0 0 0 0 0 0 0 0 0 0 0 0 0 0 127 0" result="hardAlpha"/>
            <feOffset/>
            <feGaussianBlur stdDeviation="2"/>
            <feComposite in2="hardAlpha" operator="out"/>
            <feColorMatrix type="matrix" values="0 0 0 0 0 0 0 0 0 0 0 0 0 0 0 0 0 0 0.15 0"/>
            <feBlend mode="normal" in2="BackgroundImageFix" result="effect1_dropShadow_11524_18163"/>
            <feBlend mode="normal" in="SourceGraphic" in2="effect1_dropShadow_11524_18163" result="shape"/>
        </filter>
        <clipPath id="clip0_11524_18163">
            <rect width="55.6863" height="55.6863" fill="white" transform="translate(47 46)"/>
        </clipPath>
    </defs>
</svg>
