<svg width="224" height="278" viewBox="0 0 224 278" fill="none" xmlns="http://www.w3.org/2000/svg">
    <g opacity="0.32" filter="url(#filter0_d_5001_21485)">
        <circle cx="112" cy="112" r="102" fill="#1781B6"/>
    </g>
    <circle opacity="0.52" cx="112" cy="112" r="86" fill="#1781B6"/>
    <g filter="url(#filter1_d_5001_21485)">
        <circle cx="112" cy="112" r="70" fill="#1781B6"/>
    </g>
    <g filter="url(#filter2_d_5001_21485)">
        <path d="M144.664 105.333C143.331 101.333 139.331 98.6665 135.331 98.6665C129.664 98.6665 125.331 103 125.331 108.667C125.331 113 127.997 116.667 131.997 118V123.667C131.997 132 125.331 138.667 116.997 138.667C108.664 138.667 101.997 132 101.997 123.667V121.667C111.664 120 118.664 111.667 118.664 102V81.9998C118.664 79.9998 117.331 78.6665 115.331 78.6665H108.664C106.664 78.6665 105.331 79.9998 105.331 81.9998C105.331 83.9998 106.664 85.3332 108.664 85.3332H111.997V102C111.997 109.333 105.997 115.333 98.6641 115.333C91.3307 115.333 85.3307 109.333 85.3307 102V85.3332H88.6641C90.6641 85.3332 91.9974 83.9998 91.9974 81.9998C91.9974 79.9998 90.6641 78.6665 88.6641 78.6665H81.9974C79.9974 78.6665 78.6641 79.9998 78.6641 81.9998V102C78.6641 111.667 85.6641 120 95.3307 121.667V123.667C95.3307 135.667 104.997 145.333 116.997 145.333C128.997 145.333 138.664 135.667 138.664 123.667V118C143.997 116.333 146.664 110.667 144.664 105.333Z" fill="white"/>
    </g>
    <path d="M43.2539 245.872V249.94H36.5579V271H31.5179V249.94H24.8219V245.872H43.2539ZM45.6353 260.956C45.6353 258.94 46.0313 257.152 46.8233 255.592C47.6393 254.032 48.7313 252.832 50.0993 251.992C51.4913 251.152 53.0393 250.732 54.7433 250.732C56.2313 250.732 57.5273 251.032 58.6313 251.632C59.7593 252.232 60.6593 252.988 61.3313 253.9V251.056H66.4073V271H61.3313V268.084C60.6833 269.02 59.7833 269.8 58.6313 270.424C57.5033 271.024 56.1953 271.324 54.7073 271.324C53.0273 271.324 51.4913 270.892 50.0993 270.028C48.7313 269.164 47.6393 267.952 46.8233 266.392C46.0313 264.808 45.6353 262.996 45.6353 260.956ZM61.3313 261.028C61.3313 259.804 61.0913 258.76 60.6113 257.896C60.1313 257.008 59.4833 256.336 58.6673 255.88C57.8513 255.4 56.9753 255.16 56.0393 255.16C55.1033 255.16 54.2393 255.388 53.4473 255.844C52.6553 256.3 52.0073 256.972 51.5033 257.86C51.0233 258.724 50.7833 259.756 50.7833 260.956C50.7833 262.156 51.0233 263.212 51.5033 264.124C52.0073 265.012 52.6553 265.696 53.4473 266.176C54.2633 266.656 55.1273 266.896 56.0393 266.896C56.9753 266.896 57.8513 266.668 58.6673 266.212C59.4833 265.732 60.1313 265.06 60.6113 264.196C61.0913 263.308 61.3313 262.252 61.3313 261.028ZM76.3697 253.972C77.0177 253.012 77.9057 252.232 79.0337 251.632C80.1857 251.032 81.4937 250.732 82.9577 250.732C84.6617 250.732 86.1977 251.152 87.5657 251.992C88.9577 252.832 90.0497 254.032 90.8417 255.592C91.6577 257.128 92.0657 258.916 92.0657 260.956C92.0657 262.996 91.6577 264.808 90.8417 266.392C90.0497 267.952 88.9577 269.164 87.5657 270.028C86.1977 270.892 84.6617 271.324 82.9577 271.324C81.4697 271.324 80.1617 271.036 79.0337 270.46C77.9297 269.86 77.0417 269.092 76.3697 268.156V271H71.3297V244.36H76.3697V253.972ZM86.9177 260.956C86.9177 259.756 86.6657 258.724 86.1617 257.86C85.6817 256.972 85.0337 256.3 84.2177 255.844C83.4257 255.388 82.5617 255.16 81.6257 255.16C80.7137 255.16 79.8497 255.4 79.0337 255.88C78.2417 256.336 77.5937 257.008 77.0897 257.896C76.6097 258.784 76.3697 259.828 76.3697 261.028C76.3697 262.228 76.6097 263.272 77.0897 264.16C77.5937 265.048 78.2417 265.732 79.0337 266.212C79.8497 266.668 80.7137 266.896 81.6257 266.896C82.5617 266.896 83.4257 266.656 84.2177 266.176C85.0337 265.696 85.6817 265.012 86.1617 264.124C86.6657 263.236 86.9177 262.18 86.9177 260.956ZM98.2841 248.68C97.3961 248.68 96.6521 248.404 96.0521 247.852C95.4761 247.276 95.1881 246.568 95.1881 245.728C95.1881 244.888 95.4761 244.192 96.0521 243.64C96.6521 243.064 97.3961 242.776 98.2841 242.776C99.1721 242.776 99.9041 243.064 100.48 243.64C101.08 244.192 101.38 244.888 101.38 245.728C101.38 246.568 101.08 247.276 100.48 247.852C99.9041 248.404 99.1721 248.68 98.2841 248.68ZM100.768 251.056V271H95.7281V251.056H100.768ZM110.788 253.972C111.436 253.012 112.324 252.232 113.452 251.632C114.604 251.032 115.912 250.732 117.376 250.732C119.08 250.732 120.616 251.152 121.984 251.992C123.376 252.832 124.468 254.032 125.26 255.592C126.076 257.128 126.484 258.916 126.484 260.956C126.484 262.996 126.076 264.808 125.26 266.392C124.468 267.952 123.376 269.164 121.984 270.028C120.616 270.892 119.08 271.324 117.376 271.324C115.888 271.324 114.58 271.036 113.452 270.46C112.348 269.86 111.46 269.092 110.788 268.156V271H105.748V244.36H110.788V253.972ZM121.336 260.956C121.336 259.756 121.084 258.724 120.58 257.86C120.1 256.972 119.452 256.3 118.636 255.844C117.844 255.388 116.98 255.16 116.044 255.16C115.132 255.16 114.268 255.4 113.452 255.88C112.66 256.336 112.012 257.008 111.508 257.896C111.028 258.784 110.788 259.828 110.788 261.028C110.788 262.228 111.028 263.272 111.508 264.16C112.012 265.048 112.66 265.732 113.452 266.212C114.268 266.668 115.132 266.896 116.044 266.896C116.98 266.896 117.844 266.656 118.636 266.176C119.452 265.696 120.1 265.012 120.58 264.124C121.084 263.236 121.336 262.18 121.336 260.956ZM132.702 248.68C131.814 248.68 131.07 248.404 130.47 247.852C129.894 247.276 129.606 246.568 129.606 245.728C129.606 244.888 129.894 244.192 130.47 243.64C131.07 243.064 131.814 242.776 132.702 242.776C133.59 242.776 134.322 243.064 134.898 243.64C135.498 244.192 135.798 244.888 135.798 245.728C135.798 246.568 135.498 247.276 134.898 247.852C134.322 248.404 133.59 248.68 132.702 248.68ZM135.186 251.056V271H130.146V251.056H135.186Z" fill="#0596DE"/>
    <path d="M161.658 271H156.618L145.206 253.756V271H140.166V245.836H145.206L156.618 263.116V245.836H161.658V271ZM185.178 260.596C185.178 261.316 185.13 261.964 185.034 262.54H170.454C170.574 263.98 171.078 265.108 171.966 265.924C172.854 266.74 173.946 267.148 175.242 267.148C177.114 267.148 178.446 266.344 179.238 264.736H184.674C184.098 266.656 182.994 268.24 181.362 269.488C179.73 270.712 177.726 271.324 175.35 271.324C173.43 271.324 171.702 270.904 170.166 270.064C168.654 269.2 167.466 267.988 166.602 266.428C165.762 264.868 165.342 263.068 165.342 261.028C165.342 258.964 165.762 257.152 166.602 255.592C167.442 254.032 168.618 252.832 170.13 251.992C171.642 251.152 173.382 250.732 175.35 250.732C177.246 250.732 178.938 251.14 180.426 251.956C181.938 252.772 183.102 253.936 183.918 255.448C184.758 256.936 185.178 258.652 185.178 260.596ZM179.958 259.156C179.934 257.86 179.466 256.828 178.554 256.06C177.642 255.268 176.526 254.872 175.206 254.872C173.958 254.872 172.902 255.256 172.038 256.024C171.198 256.768 170.682 257.812 170.49 259.156H179.958ZM194.725 255.196V264.844C194.725 265.516 194.881 266.008 195.193 266.32C195.529 266.608 196.081 266.752 196.849 266.752H199.189V271H196.021C191.773 271 189.649 268.936 189.649 264.808V255.196H187.273V251.056H189.649V246.124H194.725V251.056H199.189V255.196H194.725Z" fill="#FFAB00"/>
    <defs>
        <filter id="filter0_d_5001_21485" x="0.476191" y="0.476191" width="223.048" height="223.048" filterUnits="userSpaceOnUse" color-interpolation-filters="sRGB">
            <feFlood flood-opacity="0" result="BackgroundImageFix"/>
            <feColorMatrix in="SourceAlpha" type="matrix" values="0 0 0 0 0 0 0 0 0 0 0 0 0 0 0 0 0 0 127 0" result="hardAlpha"/>
            <feOffset/>
            <feGaussianBlur stdDeviation="4.7619"/>
            <feComposite in2="hardAlpha" operator="out"/>
            <feColorMatrix type="matrix" values="0 0 0 0 0 0 0 0 0 0 0 0 0 0 0 0 0 0 0.08 0"/>
            <feBlend mode="normal" in2="BackgroundImageFix" result="effect1_dropShadow_5001_21485"/>
            <feBlend mode="normal" in="SourceGraphic" in2="effect1_dropShadow_5001_21485" result="shape"/>
        </filter>
        <filter id="filter1_d_5001_21485" x="32.4762" y="32.4762" width="159.048" height="159.048" filterUnits="userSpaceOnUse" color-interpolation-filters="sRGB">
            <feFlood flood-opacity="0" result="BackgroundImageFix"/>
            <feColorMatrix in="SourceAlpha" type="matrix" values="0 0 0 0 0 0 0 0 0 0 0 0 0 0 0 0 0 0 127 0" result="hardAlpha"/>
            <feOffset/>
            <feGaussianBlur stdDeviation="4.7619"/>
            <feComposite in2="hardAlpha" operator="out"/>
            <feColorMatrix type="matrix" values="0 0 0 0 0 0 0 0 0 0 0 0 0 0 0 0 0 0 0.08 0"/>
            <feBlend mode="normal" in2="BackgroundImageFix" result="effect1_dropShadow_5001_21485"/>
            <feBlend mode="normal" in="SourceGraphic" in2="effect1_dropShadow_5001_21485" result="shape"/>
        </filter>
        <filter id="filter2_d_5001_21485" x="74.6641" y="74.6665" width="74.6641" height="74.6665" filterUnits="userSpaceOnUse" color-interpolation-filters="sRGB">
            <feFlood flood-opacity="0" result="BackgroundImageFix"/>
            <feColorMatrix in="SourceAlpha" type="matrix" values="0 0 0 0 0 0 0 0 0 0 0 0 0 0 0 0 0 0 127 0" result="hardAlpha"/>
            <feOffset/>
            <feGaussianBlur stdDeviation="2"/>
            <feComposite in2="hardAlpha" operator="out"/>
            <feColorMatrix type="matrix" values="0 0 0 0 0 0 0 0 0 0 0 0 0 0 0 0 0 0 0.15 0"/>
            <feBlend mode="normal" in2="BackgroundImageFix" result="effect1_dropShadow_5001_21485"/>
            <feBlend mode="normal" in="SourceGraphic" in2="effect1_dropShadow_5001_21485" result="shape"/>
        </filter>
    </defs>
</svg>
