<svg width="29" height="29" viewBox="0 0 29 29" fill="none" xmlns="http://www.w3.org/2000/svg">
    <path d="M2 8.00537C2 5.17694 2 3.76273 2.87868 2.88405C3.75736 2.00537 5.17157 2.00537 8 2.00537H21C23.8284 2.00537 25.2426 2.00537 26.1213 2.88405C27 3.76273 27 5.17694 27 8.00537V21.0054C27 23.8338 27 25.248 26.1213 26.1267C25.2426 27.0054 23.8284 27.0054 21 27.0054H8C5.17157 27.0054 3.75736 27.0054 2.87868 26.1267C2 25.248 2 23.8338 2 21.0054V8.00537Z" stroke="#0596DE" stroke-width="3"/>
    <path d="M14.5009 8.94971V20.0608M8.94531 14.5053L20.0564 14.5053" stroke="#0596DE" stroke-width="3" stroke-linecap="round"/>
</svg>
