<svg width="25" height="26" viewBox="0 0 25 26" fill="none" xmlns="http://www.w3.org/2000/svg">
    <path d="M19.1711 15.8423V15.8423C20.9576 16.8348 21.8509 17.3311 22.12 17.9614C22.3571 18.5171 22.3304 19.1501 22.0474 19.6838C21.7262 20.2892 20.7943 20.7086 18.9306 21.5472L14.8306 23.3922C13.6184 23.9377 13.0123 24.2104 12.3684 24.2104C11.7245 24.2104 11.1184 23.9377 9.90625 23.3922L5.32034 21.3286C3.67063 20.5862 2.84577 20.215 2.52335 19.6826C2.18775 19.1285 2.14136 18.4461 2.39887 17.8516C2.64627 17.2805 3.4133 16.8011 4.94737 15.8423V15.8423" stroke="black" stroke-width="2"/>
    <path d="M5.56579 10.2764V10.2764C3.7792 11.2689 2.8859 11.7652 2.61685 12.3956C2.3797 12.9512 2.40638 13.5842 2.68946 14.1179C3.0106 14.7233 3.94249 15.1427 5.80628 15.9814L9.90626 17.8263C11.1184 18.3718 11.7245 18.6445 12.3684 18.6445C13.0123 18.6445 13.6184 18.3718 14.8306 17.8263L18.4316 16.2059C20.5339 15.2599 21.585 14.7869 21.8967 14.0978C22.1221 13.5997 22.1337 13.031 21.9288 12.5241C21.6455 11.8228 20.6145 11.3073 18.5526 10.2764V10.2764" stroke="black" stroke-width="2"/>
    <path d="M14.8306 11.6421L18.4316 10.0216C20.5338 9.07566 21.5849 8.60268 21.8967 7.9136C22.122 7.41545 22.1337 6.84674 21.9288 6.3398C21.6454 5.63858 20.6145 5.12311 18.5526 4.09217L15.0517 2.34169C13.735 1.68331 13.0766 1.35412 12.3684 1.35412C11.6602 1.35412 11.0018 1.68331 9.6851 2.34169L6.18421 4.09217L6.18421 4.09217C4.12237 5.12311 3.09145 5.63858 2.80806 6.3398C2.60319 6.84674 2.6148 7.41545 2.84018 7.9136C3.15194 8.60268 4.20303 9.07566 6.30521 10.0216L9.90628 11.6421C11.1184 12.1875 11.7245 12.4603 12.3684 12.4603C13.0123 12.4603 13.6184 12.1875 14.8306 11.6421L14.8306 11.6421Z" stroke="black" stroke-width="2"/>
</svg>
