<svg width="35" height="28" viewBox="0 0 35 28" fill="none" xmlns="http://www.w3.org/2000/svg">
    <path d="M2 9.2C2 7.31438 2 6.37157 2.58579 5.78579C3.17157 5.2 4.11438 5.2 6 5.2H8.82295C9.68755 5.2 10.1199 5.2 10.4988 5.03671C10.5948 4.99533 10.6874 4.94649 10.7758 4.89063C11.1246 4.67019 11.3688 4.31346 11.8571 3.6V3.6C12.3455 2.88654 12.5897 2.52981 12.9385 2.30937C13.0269 2.25351 13.1195 2.20467 13.2155 2.16329C13.5944 2 14.0267 2 14.8913 2H19.7753C20.6399 2 21.0722 2 21.4511 2.16329C21.5472 2.20467 21.6398 2.25351 21.7282 2.30937C22.077 2.52981 22.3211 2.88654 22.8095 3.6V3.6C23.2979 4.31346 23.5421 4.67019 23.8909 4.89063C23.9793 4.94649 24.0719 4.99533 24.1679 5.03671C24.5468 5.2 24.9791 5.2 25.8437 5.2H28.6667C30.5523 5.2 31.4951 5.2 32.0809 5.78579C32.6667 6.37157 32.6667 7.31438 32.6667 9.2V22C32.6667 23.8856 32.6667 24.8284 32.0809 25.4142C31.4951 26 30.5523 26 28.6667 26H6C4.11438 26 3.17157 26 2.58579 25.4142C2 24.8284 2 23.8856 2 22V9.2Z" stroke="white" stroke-width="4" stroke-linecap="round"/>
    <path d="M23.3307 15.3333C23.3307 18.2789 20.9429 20.6667 17.9974 20.6667C15.0519 20.6667 12.6641 18.2789 12.6641 15.3333C12.6641 12.3878 15.0519 10 17.9974 10C20.9429 10 23.3307 12.3878 23.3307 15.3333Z" stroke="white" stroke-width="4" stroke-linecap="round"/>
    <path d="M24.6641 10.6667C24.6641 10.2985 24.9625 10 25.3307 10H26.6641C27.0323 10 27.3307 10.2985 27.3307 10.6667C27.3307 11.0349 27.0323 11.3333 26.6641 11.3333H25.3307C24.9625 11.3333 24.6641 11.0349 24.6641 10.6667Z" fill="white"/>
</svg>
