<svg width="50" height="50" viewBox="0 0 50 50" fill="none" xmlns="http://www.w3.org/2000/svg">
    <path fill-rule="evenodd" clip-rule="evenodd" d="M16.2682 4.1665H33.7266C41.3099 4.1665 45.8307 8.68734 45.8099 16.2707V33.729C45.8099 41.3123 41.2891 45.8332 33.7057 45.8332H16.2682C8.6849 45.8332 4.16406 41.3123 4.16406 33.7082V16.2707C4.16406 8.68734 8.6849 4.1665 16.2682 4.1665ZM32.7314 34.9434L24.9974 27.2094L17.2634 34.9434C16.6594 35.5473 15.6577 35.5473 15.0537 34.9434C14.4497 34.3394 14.4497 33.3376 15.0537 32.7337L22.7877 24.9997L15.0537 17.2657C14.4497 16.6617 14.4497 15.66 15.0537 15.056C15.6577 14.452 16.6594 14.452 17.2634 15.056L24.9974 22.79L32.7314 15.056C33.3354 14.452 34.3371 14.452 34.9411 15.056C35.5451 15.66 35.5451 16.6617 34.9411 17.2657L27.2071 24.9997L34.9411 32.7337C35.5451 33.3376 35.5451 34.3394 34.9411 34.9434C34.3371 35.5473 33.3354 35.5473 32.7314 34.9434Z" fill="#141414"/>
</svg>
