<svg width="24" height="24" viewBox="0 0 24 24" fill="none" xmlns="http://www.w3.org/2000/svg">
    <path d="M16.7031 18.9799H7.30313C6.88313 18.9799 6.41313 18.6499 6.27313 18.2499L2.13313 6.66986C1.54313 5.00986 2.23313 4.49986 3.65313 5.51986L7.55313 8.30986C8.20313 8.75986 8.94313 8.52986 9.22313 7.79986L10.9831 3.10986C11.5431 1.60986 12.4731 1.60986 13.0331 3.10986L14.7931 7.79986C15.0731 8.52986 15.8131 8.75986 16.4531 8.30986L20.1131 5.69986C21.6731 4.57986 22.4231 5.14986 21.7831 6.95986L17.7431 18.2699C17.5931 18.6499 17.1231 18.9799 16.7031 18.9799Z" stroke="white" stroke-width="1.5" stroke-linecap="round" stroke-linejoin="round"/>
    <path d="M6.5 22H17.5" stroke="white" stroke-width="1.5" stroke-linecap="round" stroke-linejoin="round"/>
    <path d="M9.5 14H14.5" stroke="white" stroke-width="1.5" stroke-linecap="round" stroke-linejoin="round"/>
</svg>
