<svg width="26" height="26" viewBox="0 0 26 26" fill="none" xmlns="http://www.w3.org/2000/svg">
<path d="M1 3C1 2.05719 1 1.58579 1.29289 1.29289C1.58579 1 2.05719 1 3 1H8.23077C9.17358 1 9.64498 1 9.93788 1.29289C10.2308 1.58579 10.2308 2.05719 10.2308 3V8.23077C10.2308 9.17358 10.2308 9.64498 9.93788 9.93788C9.64498 10.2308 9.17358 10.2308 8.23077 10.2308H3C2.05719 10.2308 1.58579 10.2308 1.29289 9.93788C1 9.64498 1 9.17358 1 8.23077V3Z" fill="white" stroke="white" stroke-linecap="round" stroke-linejoin="round"/>
<path d="M1 17.769C1 16.8262 1 16.3548 1.29289 16.0619C1.58579 15.769 2.05719 15.769 3 15.769H8.23077C9.17358 15.769 9.64498 15.769 9.93788 16.0619C10.2308 16.3548 10.2308 16.8262 10.2308 17.769V22.9998C10.2308 23.9426 10.2308 24.414 9.93788 24.7069C9.64498 24.9998 9.17358 24.9998 8.23077 24.9998H3C2.05719 24.9998 1.58579 24.9998 1.29289 24.7069C1 24.414 1 23.9426 1 22.9998V17.769Z" stroke="white" stroke-linecap="round" stroke-linejoin="round"/>
<path d="M15.7656 3C15.7656 2.05719 15.7656 1.58579 16.0585 1.29289C16.3514 1 16.8228 1 17.7656 1H22.9964C23.9392 1 24.4106 1 24.7035 1.29289C24.9964 1.58579 24.9964 2.05719 24.9964 3V8.23077C24.9964 9.17358 24.9964 9.64498 24.7035 9.93788C24.4106 10.2308 23.9392 10.2308 22.9964 10.2308H17.7656C16.8228 10.2308 16.3514 10.2308 16.0585 9.93788C15.7656 9.64498 15.7656 9.17358 15.7656 8.23077V3Z" stroke="white" stroke-linecap="round" stroke-linejoin="round"/>
<path d="M15.7656 17.769C15.7656 16.8262 15.7656 16.3548 16.0585 16.0619C16.3514 15.769 16.8228 15.769 17.7656 15.769H22.9964C23.9392 15.769 24.4106 15.769 24.7035 16.0619C24.9964 16.3548 24.9964 16.8262 24.9964 17.769V22.9998C24.9964 23.9426 24.9964 24.414 24.7035 24.7069C24.4106 24.9998 23.9392 24.9998 22.9964 24.9998H17.7656C16.8228 24.9998 16.3514 24.9998 16.0585 24.7069C15.7656 24.414 15.7656 23.9426 15.7656 22.9998V17.769Z" stroke="white" stroke-linecap="round" stroke-linejoin="round"/>
</svg>
