<svg width="28" height="35" viewBox="0 0 28 35" fill="none" xmlns="http://www.w3.org/2000/svg">
    <path d="M9.76562 14.0054L11.1774 27.4171" stroke="#0596DE" stroke-width="3" stroke-linecap="round" stroke-linejoin="round"/>
    <path d="M18.2371 14.0054L17.5312 27.4171" stroke="#0596DE" stroke-width="3" stroke-linecap="round" stroke-linejoin="round"/>
    <path d="M9.0625 7.65243V6.00537C9.0625 4.11975 9.0625 3.17694 9.64829 2.59116C10.2341 2.00537 11.1769 2.00537 13.0625 2.00537H14.9449C16.8305 2.00537 17.7733 2.00537 18.3591 2.59116C18.9449 3.17694 18.9449 4.11975 18.9449 6.00537V7.65243" stroke="#0596DE" stroke-width="3" stroke-linecap="round" stroke-linejoin="round"/>
    <path d="M26 7.65234L2 7.65234" stroke="#0596DE" stroke-width="3" stroke-linecap="round" stroke-linejoin="round"/>
    <path d="M2 13.2993L4.19914 29.5989C4.42192 31.25 4.53331 32.0756 5.09867 32.5698C5.66403 33.064 6.4971 33.064 8.16323 33.064H19.8368C21.5029 33.064 22.336 33.064 22.9013 32.5698C23.4667 32.0756 23.5781 31.25 23.8009 29.5989L26 13.2993" stroke="#0596DE" stroke-width="3" stroke-linecap="round" stroke-linejoin="round"/>
</svg>
