<svg width="27" height="26" viewBox="0 0 27 26" fill="none" xmlns="http://www.w3.org/2000/svg">
    <path d="M1 10.4194C1 8.53382 1 7.59101 1.58579 7.00522C2.17157 6.41943 3.11438 6.41943 5 6.41943H22C23.8856 6.41943 24.8284 6.41943 25.4142 7.00522C26 7.59101 26 8.53382 26 10.4194V21.0001C26 22.8857 26 23.8285 25.4142 24.4143C24.8284 25.0001 23.8856 25.0001 22 25.0001H5C3.11438 25.0001 2.17157 25.0001 1.58579 24.4143C1 23.8285 1 22.8857 1 21.0001V10.4194Z" fill="black" stroke="black" stroke-width="2"/>
    <path d="M21.8333 6.41935L20.7359 3.5647C20.2588 2.32353 20.0202 1.70294 19.5086 1.35147C18.9969 1 18.332 1 17.0023 1H5C3.11438 1 2.17157 1 1.58579 1.58579C1 2.17157 1 3.11438 1 5V17.2581" stroke="black" stroke-width="2"/>
    <rect x="20.4444" y="11.7589" width="1.38889" height="1.70789" rx="0.694444" fill="white" stroke="black" stroke-width="1.38889"/>
</svg>
