<svg width="25" height="25" viewBox="0 0 25 25" fill="none" xmlns="http://www.w3.org/2000/svg">
    <path d="M13.8498 18.4263H10.9896C9.12073 18.4263 7.60515 16.8537 7.60515 14.9165C7.60515 14.4493 7.99259 14.0619 8.4598 14.0619C8.92701 14.0619 9.31445 14.4493 9.31445 14.9165C9.31445 15.9079 10.0665 16.717 10.9896 16.717H13.8498C14.5905 16.717 15.2058 16.0561 15.2058 15.2584C15.2058 14.267 14.8526 14.0733 14.2714 13.8681L9.6791 12.25C8.79026 11.9423 7.59375 11.2814 7.59375 9.24164C7.59375 7.48675 8.97259 6.07373 10.6591 6.07373H13.5193C15.3882 6.07373 16.9038 7.64629 16.9038 9.5835C16.9038 10.0507 16.5163 10.4381 16.0491 10.4381C15.5819 10.4381 15.1944 10.0507 15.1944 9.5835C15.1944 8.5921 14.4424 7.78303 13.5193 7.78303H10.6591C9.9184 7.78303 9.30305 8.44396 9.30305 9.24164C9.30305 10.233 9.65631 10.4268 10.2375 10.6319L14.8298 12.25C15.7186 12.5577 16.9151 13.2186 16.9151 15.2584C16.9038 17.0019 15.5363 18.4263 13.8498 18.4263Z" fill="white"/>
    <path d="M12.2531 19.9418C11.7859 19.9418 11.3984 19.5544 11.3984 19.0872V5.41276C11.3984 4.94555 11.7859 4.55811 12.2531 4.55811C12.7203 4.55811 13.1077 4.94555 13.1077 5.41276V19.0872C13.1077 19.5544 12.7203 19.9418 12.2531 19.9418Z" fill="white"/>
    <path d="M15.6686 24.5H8.8314C2.64372 24.5 0 21.8563 0 15.6686V8.8314C0 2.64372 2.64372 0 8.8314 0H15.6686C21.8563 0 24.5 2.64372 24.5 8.8314V15.6686C24.5 21.8563 21.8563 24.5 15.6686 24.5ZM8.8314 1.7093C3.57814 1.7093 1.7093 3.57814 1.7093 8.8314V15.6686C1.7093 20.9219 3.57814 22.7907 8.8314 22.7907H15.6686C20.9219 22.7907 22.7907 20.9219 22.7907 15.6686V8.8314C22.7907 3.57814 20.9219 1.7093 15.6686 1.7093H8.8314Z" fill="white"/>
</svg>
