<svg width="31" height="31" viewBox="0 0 31 31" fill="none" xmlns="http://www.w3.org/2000/svg">
    <path d="M13.2382 16.3465C12.8477 16.737 12.8477 17.3702 13.2382 17.7607C13.6287 18.1512 14.2619 18.1512 14.6524 17.7607L13.2382 16.3465ZM25.8899 6.52317L26.597 5.81607L25.1828 4.40185L24.4757 5.10896L25.8899 6.52317ZM27.6864 1.89825L26.9793 2.60536L28.3935 4.01957L29.1006 3.31246L27.6864 1.89825ZM30.706 1.70711C31.0965 1.31658 31.0965 0.683417 30.706 0.292893C30.3155 -0.0976312 29.6823 -0.0976309 29.2918 0.292893L30.706 1.70711ZM14.6524 17.7607L25.8899 6.52317L24.4757 5.10896L13.2382 16.3465L14.6524 17.7607ZM29.1006 3.31246L30.706 1.70711L29.2918 0.292893L27.6864 1.89825L29.1006 3.31246Z" fill="white"/>
    <path d="M12.3929 7.21436H5.00001C3.11439 7.21436 2.17159 7.21436 1.5858 7.80014C1.00001 8.38593 1.00001 9.32874 1.00001 11.2144L1 26.0001C1 27.8857 1 28.8285 1.58579 29.4143C2.17157 30.0001 3.11438 30.0001 5 30.0001H19.7857C21.6713 30.0001 22.6141 30.0001 23.1999 29.4143C23.7857 28.8285 23.7857 27.8857 23.7857 26.0001V18.6072" stroke="white" stroke-width="2" stroke-linecap="round"/>
</svg>
