<svg width="24" height="24" viewBox="0 0 24 24" fill="none" xmlns="http://www.w3.org/2000/svg">
    <path d="M14.9688 22.75H8.96875C3.53875 22.75 1.21875 20.43 1.21875 15V9C1.21875 3.57 3.53875 1.25 8.96875 1.25H14.9688C20.3988 1.25 22.7188 3.57 22.7188 9V15C22.7188 20.43 20.4088 22.75 14.9688 22.75ZM8.96875 2.75C4.35875 2.75 2.71875 4.39 2.71875 9V15C2.71875 19.61 4.35875 21.25 8.96875 21.25H14.9688C19.5788 21.25 21.2188 19.61 21.2188 15V9C21.2188 4.39 19.5788 2.75 14.9688 2.75H8.96875Z" fill="#292D32"/>
    <path d="M11.4522 18.0599C11.2122 18.0599 10.6322 17.9699 10.2922 17.0999L9.15219 14.2199C8.99219 13.8099 8.42219 13.4299 7.99219 13.4299L1.99219 13.4499C1.58219 13.4499 1.24219 13.1199 1.24219 12.6999C1.24219 12.2899 1.57219 11.9499 1.99219 11.9499L7.99219 11.9299H8.00219C9.05219 11.9299 10.1722 12.6899 10.5622 13.6699L11.4722 15.9699L13.5322 10.7499C13.8422 9.96989 14.3922 9.85989 14.6222 9.83989C14.8522 9.82989 15.4122 9.87989 15.8022 10.6199L16.8422 12.5899C17.0222 12.9299 17.5622 13.2599 17.9522 13.2599H22.0122C22.4222 13.2599 22.7622 13.5999 22.7622 14.0099C22.7622 14.4199 22.4222 14.7599 22.0122 14.7599H17.9522C17.0022 14.7599 15.9622 14.1299 15.5222 13.2899L14.7422 11.8099L12.6422 17.0999C12.2722 17.9599 11.6822 18.0599 11.4522 18.0599Z" fill="#292D32"/>
</svg>
