<svg width="15" height="22" viewBox="0 0 15 22" fill="none" xmlns="http://www.w3.org/2000/svg">
    <path d="M14 7.41327C14 8.8703 13.669 10.3083 13.0321 11.6187L10.7389 16.3365C9.4989 18.8876 8.87891 20.1631 7.94227 20.3755C7.65112 20.4415 7.34888 20.4415 7.05773 20.3755C6.12109 20.1631 5.5011 18.8876 4.26111 16.3365L1.96793 11.6187C1.33097 10.3083 1 8.8703 1 7.41327V7.41327C1 3.87132 3.87132 1 7.41327 1H7.58673C11.1287 1 14 3.87132 14 7.41327V7.41327Z" stroke="#0596DE" stroke-width="2"/>
    <path d="M10 7.5C10 8.88071 8.88071 10 7.5 10C6.11929 10 5 8.88071 5 7.5C5 6.11929 6.11929 5 7.5 5C8.88071 5 10 6.11929 10 7.5Z" fill="#0596DE"/>
</svg>
