<svg width="28" height="28" viewBox="0 0 28 28" fill="none" xmlns="http://www.w3.org/2000/svg">
    <path d="M26.0026 26V24.05C26.0026 23.0734 26.0026 22.585 25.89 22.1857C25.6067 21.1811 24.8215 20.396 23.8169 20.1126C23.4176 20 22.9293 20 21.9526 20H13.3859C12.4093 20 11.921 20 11.5216 20.1126C10.517 20.396 9.7319 21.1811 9.44857 22.1857C9.33594 22.585 9.33594 23.0734 9.33594 24.05V26" stroke="black" stroke-width="3" stroke-linecap="round" stroke-linejoin="round"/>
    <path d="M2 21.3333V17.9C2 17.0633 2 16.6449 2.08289 16.2997C2.34624 15.2027 3.20272 14.3462 4.29966 14.0829C4.64493 14 5.06328 14 5.9 14H7.33334" stroke="black" stroke-width="3" stroke-linecap="round" stroke-linejoin="round"/>
    <path d="M22.6693 10.6667C22.6693 13.244 20.5799 15.3333 18.0026 15.3333C15.4253 15.3333 13.3359 13.244 13.3359 10.6667C13.3359 8.08934 15.4253 6 18.0026 6C20.5799 6 22.6693 8.08934 22.6693 10.6667Z" stroke="black" stroke-width="3"/>
    <path d="M12.6641 3.8405C11.8823 2.73114 10.5455 2 9.0277 2C6.61773 2 4.66406 3.84331 4.66406 6.11714C4.66406 7.90977 5.87833 9.43481 7.57316 10" stroke="black" stroke-width="3" stroke-linecap="round"/>
</svg>
