<svg width="25" height="28" viewBox="0 0 25 28" fill="none" xmlns="http://www.w3.org/2000/svg">
    <path d="M1 5C1 3.11438 1 2.17157 1.58579 1.58579C2.17157 1 3.11438 1 5 1H20C21.8856 1 22.8284 1 23.4142 1.58579C24 2.17157 24 3.11438 24 5V22.875C24 24.7606 24 25.7034 23.4142 26.2892C22.8284 26.875 21.8856 26.875 20 26.875H5C3.11438 26.875 2.17157 26.875 1.58579 26.2892C1 25.7034 1 24.7606 1 22.875V5Z" stroke="#141414" stroke-width="2"/>
    <path d="M1 9.625L24 9.625" stroke="#141414" stroke-width="2" stroke-linecap="round"/>
    <path d="M1 18.25H24" stroke="#141414" stroke-width="2" stroke-linecap="round"/>
    <path d="M7.1875 13.9375C7.1875 14.1791 6.99162 14.375 6.75 14.375C6.50838 14.375 6.3125 14.1791 6.3125 13.9375C6.3125 13.6959 6.50838 13.5 6.75 13.5C6.99162 13.5 7.1875 13.6959 7.1875 13.9375Z" fill="#131313" stroke="#141414" stroke-width="2"/>
    <path d="M7.1875 5.3125C7.1875 5.55412 6.99162 5.75 6.75 5.75C6.50838 5.75 6.3125 5.55412 6.3125 5.3125C6.3125 5.07088 6.50838 4.875 6.75 4.875C6.99162 4.875 7.1875 5.07088 7.1875 5.3125Z" fill="#131313" stroke="#141414" stroke-width="2"/>
    <path d="M7.1875 22.5625C7.1875 22.8041 6.99162 23 6.75 23C6.50838 23 6.3125 22.8041 6.3125 22.5625C6.3125 22.3209 6.50838 22.125 6.75 22.125C6.99162 22.125 7.1875 22.3209 7.1875 22.5625Z" fill="#131313" stroke="#141414" stroke-width="2"/>
</svg>
