<svg width="34" height="34" viewBox="0 0 34 34" fill="none" xmlns="http://www.w3.org/2000/svg">
    <path d="M24.3356 3.82838C25.6689 2.49505 26.3356 1.82838 27.164 1.82838C27.9924 1.82838 28.6591 2.49505 29.9924 3.82838L30.1695 4.00545C31.5028 5.33878 32.1695 6.00545 32.1695 6.83388C32.1695 7.6623 31.5028 8.32897 30.1695 9.6623L11.8597 27.9721C11.5951 28.2367 11.4629 28.3689 11.3094 28.4739C11.1559 28.5789 10.9847 28.6543 10.6422 28.8049L5.61869 31.0153C3.63216 31.8894 2.63889 32.3264 2.15518 31.8427C1.67147 31.359 2.10851 30.3657 2.98259 28.3792L5.19294 23.3557C5.34361 23.0132 5.41895 22.842 5.52395 22.6885C5.62895 22.535 5.76123 22.4027 6.02577 22.1382L24.3356 3.82838Z" stroke="#0596DE" stroke-width="3" stroke-linecap="round"/>
</svg>
