<svg width="34" height="34" viewBox="0 0 34 34" fill="none" xmlns="http://www.w3.org/2000/svg">
    <path d="M19.7266 8.38916L25.5605 14.2231" stroke="#0596DE" stroke-width="3"/>
    <path d="M24.3356 3.83375C25.6689 2.50042 26.3356 1.83376 27.164 1.83376C27.9924 1.83376 28.6591 2.50042 29.9924 3.83376L30.1695 4.01082C31.5028 5.34416 32.1695 6.01082 32.1695 6.83925C32.1695 7.66768 31.5028 8.33434 30.1695 9.66768L11.8597 27.9775C11.5951 28.242 11.4629 28.3743 11.3094 28.4793C11.1559 28.5843 10.9847 28.6596 10.6422 28.8103L5.61869 31.0207C3.63216 31.8947 2.63889 32.3318 2.15518 31.8481C1.67147 31.3644 2.10851 30.3711 2.98259 28.3846L5.19294 23.361C5.34361 23.0186 5.41895 22.8474 5.52395 22.6939C5.62895 22.5404 5.76123 22.4081 6.02577 22.1436L24.3356 3.83375Z" stroke="#0596DE" stroke-width="3" stroke-linecap="round"/>
</svg>
