<svg width="19" height="19" viewBox="0 0 19 19" fill="none" xmlns="http://www.w3.org/2000/svg">
    <path d="M15.7351 17.135C11.335 21.535 -2.09995 8.10006 2.30008 3.70004L3.53159 2.46849C4.45819 1.54187 6.01068 1.74182 6.67224 2.87299L7.20657 3.78659C7.5954 4.45143 7.56792 5.28047 7.13591 5.9181L6.77355 6.45294C6.37013 7.04838 6.44613 7.84637 6.9547 8.35495L9.01742 10.4177L11.0803 12.4803C11.5889 12.9889 12.3868 13.0648 12.9823 12.6614L13.5169 12.2992C14.1545 11.8673 14.9835 11.8398 15.6483 12.2285L16.562 12.7629C17.6932 13.4244 17.8932 14.9769 16.9665 15.9035L15.7351 17.135Z" stroke="#0596DE" stroke-width="2" stroke-linecap="round" stroke-linejoin="round"/>
</svg>
