<svg width="44" height="44" viewBox="0 0 44 44" fill="none" xmlns="http://www.w3.org/2000/svg">
    <path d="M12.8359 9.1665C12.8359 6.12317 15.2926 3.6665 18.3359 3.6665H25.6693C28.7126 3.6665 31.1693 6.12317 31.1693 9.1665C31.1693 10.1748 30.3443 10.9998 29.3359 10.9998H14.6693C13.6609 10.9998 12.8359 10.1748 12.8359 9.1665Z" fill="#292D32"/>
    <path d="M32.5443 27.5C32.5443 28.2517 31.9209 28.875 31.1693 28.875H29.3359V34.8333C29.3359 37.8767 26.8793 40.3333 23.8359 40.3333H20.1693C17.1259 40.3333 14.6693 37.8767 14.6693 34.8333V28.875H12.8359C12.0843 28.875 11.4609 28.2517 11.4609 27.5C11.4609 26.7483 12.0843 26.125 12.8359 26.125H31.1693C31.9209 26.125 32.5443 26.7483 32.5443 27.5Z" fill="#292D32"/>
    <path d="M33 12.8335H11C7.33333 12.8335 5.5 14.6668 5.5 18.3335V27.5002C5.5 31.1668 7.33333 33.0002 11 33.0002H12.0333C12.4752 33.0002 12.8333 32.642 12.8333 32.2002V31.5085C12.8333 31.0667 12.4695 30.7186 12.0417 30.6084C10.6592 30.252 9.625 28.9874 9.625 27.5002C9.625 25.7402 11.0733 24.2918 12.8333 24.2918H31.1667C32.9267 24.2918 34.375 25.7402 34.375 27.5002C34.375 28.9874 33.3408 30.252 31.9583 30.6084C31.5305 30.7186 31.1667 31.0667 31.1667 31.5085V32.2002C31.1667 32.642 31.5248 33.0002 31.9667 33.0002H33C36.6667 33.0002 38.5 31.1668 38.5 27.5002V18.3335C38.5 14.6668 36.6667 12.8335 33 12.8335ZM18.3333 21.5418H12.8333C12.0817 21.5418 11.4583 20.9185 11.4583 20.1668C11.4583 19.4152 12.0817 18.7918 12.8333 18.7918H18.3333C19.085 18.7918 19.7083 19.4152 19.7083 20.1668C19.7083 20.9185 19.085 21.5418 18.3333 21.5418Z" fill="#292D32"/>
</svg>
