<svg width="41" height="41" viewBox="0 0 41 41" fill="none" xmlns="http://www.w3.org/2000/svg">
    <path d="M18.4444 2H22.5556C23.6908 2 24.6111 2.9203 24.6111 4.05556V5.22473C24.6111 6.10409 25.2013 6.86807 26.0134 7.20525C26.8259 7.54256 27.7719 7.41401 28.3939 6.79197L29.2209 5.96498C30.0236 5.16223 31.3252 5.16223 32.1279 5.96498L35.0349 8.87197C35.8376 9.67472 35.8376 10.9762 35.0349 11.779L34.208 12.6058C33.5859 13.2279 33.4574 14.174 33.7947 14.9865C34.1319 15.7987 34.8959 16.3889 35.7754 16.3889L36.9444 16.3889C38.0797 16.3889 39 17.3092 39 18.4444V22.5556C39 23.6908 38.0797 24.6111 36.9444 24.6111H35.7753C34.8959 24.6111 34.1319 25.2013 33.7947 26.0135C33.4574 26.826 33.586 27.772 34.208 28.394L35.0349 29.2209C35.8377 30.0237 35.8377 31.3252 35.0349 32.1279L32.1279 35.0349C31.3252 35.8377 30.0237 35.8377 29.2209 35.0349L28.394 34.208C27.772 33.586 26.826 33.4574 26.0135 33.7947C25.2013 34.1319 24.6111 34.8959 24.6111 35.7753V36.9444C24.6111 38.0797 23.6908 39 22.5556 39H18.4444C17.3092 39 16.3889 38.0797 16.3889 36.9444V35.7754C16.3889 34.8959 15.7987 34.1319 14.9865 33.7947C14.174 33.4574 13.2279 33.5859 12.6058 34.208L11.7789 35.0349C10.9762 35.8377 9.67468 35.8377 8.87194 35.0349L5.96494 32.1279C5.1622 31.3252 5.1622 30.0237 5.96494 29.2209L6.79197 28.3939C7.41401 27.7719 7.54256 26.8259 7.20525 26.0134C6.86807 25.2013 6.10409 24.6111 5.22473 24.6111H4.05556C2.9203 24.6111 2 23.6908 2 22.5556V18.4444C2 17.3092 2.9203 16.3889 4.05556 16.3889L5.22469 16.3889C6.10408 16.3889 6.86807 15.7987 7.20527 14.9865C7.54259 14.174 7.41404 13.228 6.79198 12.606L5.96498 11.779C5.16223 10.9762 5.16223 9.67472 5.96498 8.87198L8.87197 5.96499C9.67472 5.16224 10.9762 5.16224 11.779 5.96499L12.606 6.79198C13.228 7.41404 14.174 7.5426 14.9865 7.20527C15.7987 6.86807 16.3889 6.10408 16.3889 5.22468V4.05556C16.3889 2.9203 17.3092 2 18.4444 2Z" stroke="white" stroke-width="3"/>
    <path d="M24.6111 20.5C24.6111 22.7705 22.7705 24.6111 20.5 24.6111C18.2295 24.6111 16.3889 22.7705 16.3889 20.5C16.3889 18.2295 18.2295 16.3889 20.5 16.3889C22.7705 16.3889 24.6111 18.2295 24.6111 20.5Z" stroke="white" stroke-width="3"/>
</svg>
