<svg width="6" height="22" viewBox="0 0 6 22" fill="none" xmlns="http://www.w3.org/2000/svg">
    <path d="M5 3C5 4.10457 4.10457 5 3 5C1.89543 5 1 4.10457 1 3C1 1.89543 1.89543 1 3 1C4.10457 1 5 1.89543 5 3Z" fill="#0596DE"/>
    <path d="M5.00001 11C5.00001 12.1045 4.10458 13 3.00001 13C1.89544 13 1.00001 12.1045 1.00001 11C1.00001 9.89541 1.89544 8.99998 3.00001 8.99998C4.10458 8.99998 5.00001 9.89541 5.00001 11Z" fill="#0596DE"/>
    <path d="M5 19C5 20.1046 4.10457 21 3 21C1.89543 21 1 20.1046 1 19C1 17.8954 1.89543 17 3 17C4.10457 17 5 17.8954 5 19Z" fill="#0596DE"/>
    <path d="M5 3C5 4.10457 4.10457 5 3 5C1.89543 5 1 4.10457 1 3C1 1.89543 1.89543 1 3 1C4.10457 1 5 1.89543 5 3Z" stroke="#0596DE" stroke-width="2"/>
    <path d="M5.00001 11C5.00001 12.1045 4.10458 13 3.00001 13C1.89544 13 1.00001 12.1045 1.00001 11C1.00001 9.89541 1.89544 8.99998 3.00001 8.99998C4.10458 8.99998 5.00001 9.89541 5.00001 11Z" stroke="#0596DE" stroke-width="2"/>
    <path d="M5 19C5 20.1046 4.10457 21 3 21C1.89543 21 1 20.1046 1 19C1 17.8954 1.89543 17 3 17C4.10457 17 5 17.8954 5 19Z" stroke="#0596DE" stroke-width="2"/>
</svg>
