<svg width="41" height="41" viewBox="0 0 41 41" fill="none" xmlns="http://www.w3.org/2000/svg">
    <path d="M36.2995 15.631C32.3532 9.42979 26.5791 5.85938 20.4974 5.85938C17.4566 5.85938 14.5011 6.74771 11.802 8.40479C9.10281 10.079 6.67698 12.5219 4.69531 15.631C2.98698 18.3131 2.98698 22.6694 4.69531 25.3515C8.64156 31.5698 14.4157 35.1231 20.4974 35.1231C23.5382 35.1231 26.4936 34.2348 29.1928 32.5777C31.892 30.9035 34.3178 28.4606 36.2995 25.3515C38.0078 22.6865 38.0078 18.3131 36.2995 15.631ZM20.4974 27.4015C16.6707 27.4015 13.5957 24.3094 13.5957 20.4998C13.5957 16.6902 16.6707 13.5981 20.4974 13.5981C24.3241 13.5981 27.3991 16.6902 27.3991 20.4998C27.3991 24.3094 24.3241 27.4015 20.4974 27.4015Z" fill="#0596DE"/>
    <path d="M20.5016 15.6143C17.8195 15.6143 15.6328 17.8009 15.6328 20.5001C15.6328 23.1822 17.8195 25.3688 20.5016 25.3688C23.1836 25.3688 25.3874 23.1822 25.3874 20.5001C25.3874 17.818 23.1836 15.6143 20.5016 15.6143Z" fill="#0596DE"/>
</svg>
