<svg width="19" height="19" viewBox="0 0 19 19" fill="none" xmlns="http://www.w3.org/2000/svg">
    <path d="M12.3324 9.50018C12.3324 11.0677 11.0657 12.3343 9.49823 12.3343C7.93073 12.3343 6.66406 11.0677 6.66406 9.50018C6.66406 7.93268 7.93073 6.66602 9.49823 6.66602C11.0657 6.66602 12.3324 7.93268 12.3324 9.50018Z" stroke="#292D32" stroke-width="1.5" stroke-linecap="round" stroke-linejoin="round"/>
    <path d="M9.49646 16.0469C12.291 16.0469 14.8956 14.4002 16.7085 11.5502C17.421 10.434 17.421 8.55774 16.7085 7.44149C14.8956 4.59149 12.291 2.94482 9.49646 2.94482C6.70187 2.94482 4.09729 4.59149 2.28437 7.44149C1.57187 8.55774 1.57187 10.434 2.28437 11.5502C4.09729 14.4002 6.70187 16.0469 9.49646 16.0469Z" stroke="#292D32" stroke-width="1.5" stroke-linecap="round" stroke-linejoin="round"/>
</svg>
